<svg version="1.1" id="Layer_1" xmlns="http://www.w3.org/2000/svg" xmlns:xlink="http://www.w3.org/1999/xlink" x="0px" y="0px"
	 width="100%" viewBox="0 0 1024 1024" enable-background="new 0 0 1024 1024" xml:space="preserve">
<path fill="#000000" opacity="1.000000" stroke="none" 
	d="
M559.021667,525.278015 
	C554.685974,525.271851 550.845886,525.271851 547.005737,525.271851 
	C546.979065,524.586975 546.952393,523.902100 546.925781,523.217224 
	C553.930664,522.290100 561.198547,522.704590 568.529114,519.813171 
	C548.250793,493.002045 536.013977,462.114563 521.615112,432.066559 
	C519.051880,433.042328 517.980530,435.175995 516.510925,436.846008 
	C513.979858,439.722351 511.856110,443.102997 508.899719,445.432098 
	C499.914276,452.510986 499.739868,460.523529 505.327728,469.628204 
	C507.134521,472.572174 507.186249,476.384308 510.210876,479.601624 
	C516.661377,471.291138 519.122803,460.906494 525.524902,452.840332 
	C519.416382,471.544769 509.601135,488.568542 502.308838,506.930573 
	C495.577118,495.765503 492.802429,483.311554 486.665710,471.841766 
	C480.011597,478.120148 474.859833,485.255798 469.121002,491.844788 
	C459.388184,503.019440 449.593262,514.166138 441.417542,526.591064 
	C439.399506,529.657898 437.444305,532.773560 436.367310,536.313293 
	C434.687256,541.835327 436.615540,545.258850 442.241302,546.701599 
	C447.094849,547.946350 452.088562,548.248474 457.060913,548.672607 
	C458.650238,548.808228 460.403503,548.090027 462.648956,550.316162 
	C440.087982,550.316162 418.393463,550.316162 396.668579,550.316162 
	C396.758270,549.029236 397.430481,548.843201 398.068909,548.787537 
	C411.918793,547.580505 421.741028,539.203674 430.325470,529.558899 
	C447.931732,509.778046 464.951935,489.476227 482.305664,469.468872 
	C484.301483,467.167877 484.787201,465.157013 483.662170,462.272491 
	C470.710968,429.065460 457.596252,395.924591 443.964264,362.990173 
	C437.999390,348.579224 427.230774,341.529633 411.602875,341.875519 
	C409.528656,341.921448 407.266968,342.565094 404.393585,339.862976 
	C432.843750,338.332336 460.225616,338.900635 487.732147,340.550537 
	C477.264221,342.184998 466.601868,342.427063 456.181244,346.848114 
	C470.117493,381.442291 483.959473,415.802582 498.169373,451.076111 
	C503.434479,445.027222 507.628784,438.900391 513.091064,434.269012 
	C519.703674,428.662262 518.575806,423.322906 515.241089,416.877106 
	C512.108276,410.821625 509.521454,404.483856 506.689301,398.272583 
	C506.147797,397.085052 505.275696,395.966644 506.370758,393.692291 
	C513.240173,402.548279 516.618652,413.103302 523.127380,421.261841 
	C524.735962,421.396729 525.458923,420.648987 526.091003,419.898315 
	C541.755310,401.297119 558.763855,383.848785 573.613403,364.552856 
	C575.739136,361.790619 577.692383,358.840637 579.324768,355.764893 
	C583.128052,348.598694 580.219177,343.255280 572.134644,342.329956 
	C569.657471,342.046417 567.143921,342.091003 564.649353,341.945374 
	C563.082275,341.853882 561.339417,342.170105 559.550354,339.411713 
	C580.541626,339.198608 600.684631,338.616486 622.044067,339.451477 
	C619.626099,341.908173 617.690735,341.747375 616.070374,341.871521 
	C605.512390,342.680267 596.998230,347.625549 589.848816,355.001556 
	C572.918945,372.467926 557.131775,390.973938 541.043579,409.204041 
	C536.855896,413.949280 532.842407,418.850159 528.591858,423.537018 
	C526.894531,425.408569 526.351379,427.109100 527.750122,429.308746 
	C530.415161,433.499939 533.038452,437.717621 536.208801,442.768036 
	C540.260132,434.263062 543.951050,426.514832 548.013306,417.987061 
	C549.896973,421.033813 548.560181,422.594360 547.891357,424.088654 
	C545.170105,430.168762 542.391357,436.226074 539.474731,442.214325 
	C538.348206,444.527344 538.218567,446.556458 539.567749,448.799622 
	C551.592163,468.791534 563.463318,488.893005 579.514038,506.067566 
	C590.088013,517.381897 603.033447,523.229248 618.672546,522.775940 
	C620.204834,522.731567 622.032166,522.153992 624.151062,525.284180 
	C601.968445,525.284180 580.742798,525.284180 559.021667,525.278015 
z"/>
<path fill="#000000" opacity="1.000000" stroke="none" 
	d="
M513.638428,610.150146 
	C523.919067,619.379089 521.525818,628.749878 506.801666,636.310303 
	C514.989136,644.318726 518.089111,657.109619 531.353577,659.808838 
	C526.683716,662.995178 518.058960,661.844971 513.803955,657.450806 
	C509.734161,653.247925 506.430481,648.427429 503.032959,643.686157 
	C501.773834,641.929077 500.527954,640.123047 499.018341,638.593689 
	C496.398193,635.939209 492.892242,635.594604 489.719757,636.765320 
	C486.973846,637.778687 488.345978,640.857117 488.162354,643.038818 
	C487.967438,645.355042 488.091187,647.702271 488.145050,650.034302 
	C488.246124,654.411255 486.986267,659.598267 495.077209,659.423340 
	C491.027496,661.662231 479.348114,661.950317 472.468262,660.190979 
	C482.594055,658.219421 479.715668,651.164368 479.849121,645.545898 
	C480.074615,636.051941 479.910095,626.548584 479.895325,617.049133 
	C479.884674,610.197021 479.874359,610.197021 473.725220,607.192871 
	C478.192200,604.779236 482.721375,606.764648 487.039734,606.342651 
	C495.979279,605.468872 505.051086,605.248413 513.638428,610.150146 
M502.962067,632.705750 
	C510.194244,631.058838 511.701111,622.907715 510.339172,617.873291 
	C508.480408,611.002197 501.245941,607.353699 491.369080,609.428101 
	C485.015747,610.762512 489.298676,616.633850 488.106232,620.263733 
	C487.909088,620.863770 488.084747,621.585388 488.083832,622.250854 
	C488.066406,634.905396 489.428986,635.938965 502.962067,632.705750 
z"/>
<path fill="#000000" opacity="1.000000" stroke="none" 
	d="
M674.998169,613.094971 
	C678.194580,609.330750 674.708252,608.579651 672.575012,606.928040 
	C677.989929,606.000854 683.164062,605.402832 689.673096,607.088867 
	C677.953247,611.295471 673.589966,621.280518 666.695862,628.692627 
	C665.335388,630.155212 665.684998,631.559448 666.907227,633.110229 
	C672.571838,640.297607 678.213135,647.506653 683.690857,654.836426 
	C685.862000,657.741760 689.181458,658.560486 692.258850,660.417358 
	C685.141052,661.151001 678.262878,662.037842 671.311768,661.088501 
	C671.311646,658.199524 674.214600,659.389343 675.077759,656.982605 
	C671.132019,650.147522 665.603088,643.897095 660.013306,637.008301 
	C653.511108,643.237061 648.819580,650.218567 644.051270,656.076904 
	C643.667297,659.293762 647.071777,658.188477 646.928162,661.033630 
	C641.909790,661.693298 636.845032,661.334534 631.585693,660.597168 
	C642.166992,655.468506 647.269470,645.205078 654.803955,637.352966 
	C657.250488,634.803284 657.259766,632.836914 654.792542,630.203308 
	C652.193237,627.428589 650.293335,624.011780 647.820007,621.103333 
	C643.403870,615.910156 640.573669,608.863647 632.345154,607.300598 
	C639.786926,605.805298 646.982422,605.641296 654.468750,606.537842 
	C653.788452,609.382812 651.141479,607.788147 650.098999,610.082397 
	C652.875793,616.382690 658.367737,621.283020 662.933899,627.812561 
	C667.080627,622.761658 670.936646,618.064880 674.998169,613.094971 
z"/>
<path fill="#000000" opacity="1.000000" stroke="none" 
	d="
M601.249695,609.921631 
	C601.061401,612.440857 601.981567,614.609314 600.936462,616.702454 
	C599.153076,616.887756 599.166565,615.425476 598.804993,614.462891 
	C597.446594,610.847229 594.667114,609.369385 591.034302,609.311218 
	C585.869385,609.228455 580.700745,609.352112 575.536804,609.243103 
	C572.541687,609.179932 571.328125,610.452637 571.397034,613.427612 
	C571.505005,618.091187 571.441101,622.759949 571.387329,627.425720 
	C571.360779,629.731262 572.044556,631.453796 574.649780,631.485535 
	C578.978882,631.538330 583.328918,631.693665 587.633789,631.350769 
	C591.113953,631.073608 593.854492,629.258423 594.844421,625.100098 
	C596.767761,630.479004 596.052795,635.366272 595.439636,640.663086 
	C590.668884,630.424744 581.840332,635.291870 574.735291,634.455505 
	C571.691223,634.097229 571.486023,637.044556 571.564209,639.111511 
	C571.765686,644.441162 572.056641,649.757568 571.661072,655.090637 
	C571.523438,656.945679 572.129822,658.565002 574.281555,658.592712 
	C581.087097,658.680603 587.963440,659.440063 594.582642,657.090088 
	C598.946167,655.540955 601.852966,652.164246 604.299438,648.252502 
	C604.782532,648.512878 605.265625,648.773254 605.748779,649.033691 
	C604.432739,652.936035 603.225769,656.880737 601.734131,660.714722 
	C601.289490,661.857422 599.747803,661.734192 598.576965,661.724731 
	C585.917175,661.622375 573.257263,661.529663 560.597961,661.379578 
	C559.374084,661.364990 557.891663,661.856384 557.045105,660.373047 
	C557.078125,658.900269 558.188599,658.855408 559.161316,658.807007 
	C562.576111,658.636963 563.698120,656.662354 563.688538,653.506470 
	C563.648987,640.507202 563.511841,627.504456 563.768188,614.510010 
	C563.860596,609.827759 560.723389,608.830261 557.441345,607.718445 
	C558.098328,606.061035 559.360535,605.993713 560.480347,606.069702 
	C572.464783,606.882812 584.437439,605.531128 596.419678,605.911072 
	C598.975891,605.992188 601.175720,606.213135 601.249695,609.921631 
z"/>
<path fill="#000000" opacity="1.000000" stroke="none" 
	d="
M363.199341,645.619751 
	C363.986786,647.077637 364.630005,648.225159 365.605103,649.964783 
	C372.444214,637.792175 377.672729,625.450928 383.199036,613.259521 
	C384.794556,609.739624 381.510376,608.850830 378.592987,606.870789 
	C384.525299,605.531494 389.376709,605.834778 394.587799,607.126526 
	C388.115509,609.246216 386.538330,614.863525 384.056610,619.901917 
	C377.590576,633.029541 371.259094,646.215332 365.453705,659.650452 
	C365.140808,660.374634 364.636749,661.016174 364.092773,661.907288 
	C361.721863,661.095093 361.274384,659.015015 360.471161,657.342041 
	C353.994629,643.852417 347.535828,630.354004 341.157867,616.817566 
	C339.278748,612.829346 337.202911,609.141479 332.568726,607.167542 
	C339.042969,605.742432 345.418488,605.876099 352.564453,606.943054 
	C345.101440,608.971924 347.629089,613.020874 349.518280,616.961853 
	C354.044739,626.404236 358.544586,635.859375 363.199341,645.619751 
z"/>
<path fill="#000000" opacity="1.000000" stroke="none" 
	d="
M425.420288,658.455811 
	C428.220428,656.693054 428.268860,654.122620 428.213837,651.627563 
	C427.938446,639.140198 427.484619,626.650146 428.404022,614.174561 
	C428.719177,609.898376 425.686310,608.681335 422.536469,607.096863 
	C429.088684,605.668701 435.461517,605.728699 442.790131,606.542175 
	C440.520111,608.997559 437.189667,608.355530 436.660492,610.961182 
	C436.203278,613.212280 436.244019,615.583435 436.230408,617.902466 
	C436.170807,628.064392 436.129608,638.226807 436.168396,648.388733 
	C436.187042,653.265747 434.495911,659.092529 442.080200,660.811890 
	C435.412415,660.811890 428.744629,660.811890 421.968353,660.811890 
	C422.241455,658.354614 424.009094,659.065979 425.420288,658.455811 
z"/>
</svg>