<?xml version="1.0" encoding="utf-8"?>
<!DOCTYPE svg PUBLIC "-//W3C//DTD SVG 20010904//EN" "http://www.w3.org/TR/2001/REC-SVG-20010904/DTD/svg10.dtd">
<svg version="1.0" xmlns="http://www.w3.org/2000/svg" width="1026pt" height="1026pt" viewBox="0 0 1026 1026" preserveAspectRatio="xMidYMid meet">
<g fill="#040403FF">
<path d="M 404.76 548.45 C 417.68 544.97 426.27 536.61 471.48 483.50 C 478.03 475.80 484.00 468.77 484.73 467.88 C 486.23 466.07 483.61 458.88 458.99 397.50 C 443.50 358.85 442.27 356.27 436.33 349.92 C 431.22 344.46 425.51 342.07 415.00 340.96 C 411.43 340.59 425.38 340.29 446.00 340.29 C 467.24 340.29 480.46 340.61 476.50 341.02 C 472.65 341.41 466.82 342.47 463.54 343.37 C 460.26 344.27 456.77 345.00 455.79 345.00 C 453.83 345.00 453.47 346.06 454.93 347.55 C 455.62 348.25 487.41 426.27 496.37 449.25 C 496.96 450.76 497.73 452.00 498.10 452.00 C 498.46 452.00 502.94 447.07 508.06 441.04 C 513.18 435.01 517.96 429.85 518.68 429.57 C 519.41 429.29 520.00 428.43 520.00 427.65 C 520.00 425.90 512.89 408.71 508.91 400.81 C 503.80 390.69 506.45 394.50 514.61 409.00 C 518.94 416.70 522.94 423.00 523.49 423.00 C 524.63 422.99 558.38 384.88 570.26 370.18 C 579.17 359.16 582.27 353.46 581.82 348.90 C 581.34 344.05 577.69 341.92 568.36 341.03 C 563.12 340.53 570.34 340.27 590.00 340.24 C 615.44 340.20 618.60 340.35 613.00 341.36 C 605.64 342.68 599.48 345.59 593.20 350.71 C 587.58 355.29 545.08 402.55 526.33 425.06 C 525.22 426.39 525.81 427.90 530.21 435.06 C 533.06 439.70 535.98 444.09 536.69 444.82 C 537.41 445.55 538.01 446.67 538.01 447.32 C 538.03 448.83 554.49 475.14 563.00 487.25 C 566.57 492.34 573.77 500.82 579.00 506.10 C 589.41 516.62 595.13 520.07 606.06 522.44 C 612.07 523.75 610.45 523.84 582.00 523.79 C 561.97 523.75 553.81 523.47 558.22 522.95 C 561.92 522.52 566.35 521.86 568.07 521.49 L 571.18 520.80 L 568.73 518.15 C 562.12 511.00 549.40 489.03 538.24 465.50 C 529.02 446.05 524.20 435.59 522.80 432.00 L 521.82 429.50 L 517.84 434.00 C 515.65 436.48 510.52 442.40 506.43 447.17 L 499.00 455.84 L 504.08 468.92 C 506.88 476.11 509.56 482.00 510.05 482.00 C 510.53 482.00 513.97 475.73 517.68 468.06 C 521.40 460.39 524.59 454.25 524.76 454.42 C 524.92 454.59 522.52 460.30 519.41 467.12 C 510.32 487.02 503.00 503.92 503.00 505.00 C 503.00 508.51 500.65 503.81 494.51 487.99 C 490.67 478.09 487.22 470.11 486.86 470.25 C 486.50 470.39 480.03 477.70 472.49 486.50 C 440.11 524.29 433.39 534.43 435.39 542.43 C 436.21 545.67 438.97 547.14 447.00 548.61 C 452.77 549.67 450.45 549.81 426.50 549.84 C 401.44 549.87 399.88 549.77 404.76 548.45Z"/></g>
<g fill="#040403FF">
<path d="M 477.77 659.77 C 479.02 659.17 480.27 657.74 480.55 656.59 C 480.83 655.44 480.94 644.39 480.78 632.03 L 480.50 609.56 L 478.00 608.29 C 474.12 606.33 500.95 606.50 507.61 608.48 C 514.80 610.61 518.50 614.82 518.50 620.86 C 518.50 627.10 516.00 630.75 509.96 633.30 L 505.14 635.34 L 512.49 644.92 C 521.44 656.59 523.91 658.98 528.18 660.08 C 530.87 660.77 530.34 660.88 525.37 660.66 C 521.71 660.50 518.20 659.71 516.66 658.70 C 515.24 657.77 510.68 652.53 506.54 647.05 C 502.39 641.58 498.27 636.69 497.37 636.19 C 496.08 635.47 496.55 635.12 499.58 634.55 C 507.96 632.98 511.50 629.10 511.50 621.50 C 511.50 612.55 506.93 608.93 494.75 608.20 L 487.00 607.74 L 487.00 632.18 C 487.00 658.31 487.20 659.46 492.00 660.29 C 493.38 660.53 490.23 660.76 485.00 660.80 C 477.44 660.85 475.96 660.64 477.77 659.77Z"/></g>
<g fill="#040403FF">
<path d="M 638.67 656.65 C 641.07 654.53 646.59 648.53 650.95 643.32 L 658.86 633.83 L 650.53 623.17 C 640.82 610.74 638.40 608.34 635.00 607.72 C 633.62 607.48 637.45 607.28 643.50 607.29 C 649.55 607.29 653.26 607.49 651.75 607.72 C 650.14 607.96 649.00 608.76 649.00 609.65 C 649.00 611.34 661.65 628.50 662.90 628.50 C 663.85 628.50 678.00 611.10 678.00 609.93 C 678.00 609.47 677.21 608.64 676.25 608.08 C 674.95 607.32 676.31 607.09 681.50 607.18 C 685.35 607.25 687.27 607.49 685.78 607.71 C 683.00 608.14 675.93 615.22 667.88 625.66 L 663.89 630.83 L 672.69 642.13 C 677.54 648.35 682.87 654.87 684.55 656.62 L 687.60 659.80 L 684.05 660.39 C 682.10 660.71 678.48 660.95 676.00 660.93 C 672.30 660.88 671.90 660.71 673.75 659.97 C 674.99 659.47 676.00 658.33 676.00 657.43 C 676.00 655.31 660.85 635.89 659.52 636.31 C 657.63 636.89 641.94 657.10 642.58 658.12 C 642.92 658.68 644.17 659.55 645.35 660.04 C 646.87 660.68 645.58 660.88 640.90 660.72 L 634.31 660.50 L 638.67 656.65Z"/></g>
<g fill="#040403FF">
<path d="M 559.74 660.31 C 564.55 659.35 565.00 657.15 565.00 634.34 C 565.00 622.68 564.57 612.01 564.05 610.64 C 563.43 608.99 562.15 608.00 560.30 607.72 C 558.76 607.49 567.06 607.23 578.75 607.15 C 598.91 607.01 600.00 607.10 600.00 608.87 C 600.00 609.91 600.22 612.27 600.50 614.12 L 600.99 617.50 L 599.97 614.26 C 598.38 609.22 594.89 608.00 582.05 608.00 L 571.00 608.00 L 571.00 620.00 L 571.00 632.00 L 581.00 632.00 C 589.67 632.00 591.27 631.73 593.00 630.00 L 595.00 628.00 L 595.00 633.11 L 595.00 638.22 L 593.12 635.90 C 591.43 633.81 590.24 633.54 581.12 633.17 L 571.00 632.77 L 571.00 645.86 L 571.00 658.96 L 573.60 659.62 C 575.04 659.97 579.90 660.04 584.40 659.76 C 593.27 659.20 599.56 656.78 602.56 652.76 C 604.00 650.82 604.14 650.79 603.50 652.50 C 603.09 653.60 602.45 655.85 602.09 657.50 L 601.42 660.50 L 579.46 660.63 C 567.38 660.70 558.51 660.56 559.74 660.31Z"/></g>
<g fill="#040403FF">
<path d="M 360.50 655.77 C 358.97 652.32 353.34 640.45 347.99 629.38 C 339.60 612.02 337.87 609.11 335.38 608.21 C 333.05 607.36 334.41 607.17 342.50 607.23 C 348.00 607.27 351.24 607.49 349.69 607.72 C 348.15 607.95 346.64 608.76 346.36 609.52 C 345.90 610.71 363.06 648.94 365.17 651.43 C 365.87 652.25 376.79 630.66 383.11 615.97 L 385.37 610.72 L 383.07 608.86 C 380.79 607.01 380.80 607.00 387.64 607.12 C 391.41 607.18 393.60 607.45 392.50 607.72 C 391.40 607.99 389.90 608.71 389.16 609.31 C 387.48 610.67 376.00 633.55 368.98 649.50 C 366.08 656.10 363.61 661.62 363.50 661.77 C 363.39 661.92 362.04 659.22 360.50 655.77Z"/></g>
<g fill="#040403FF">
<path d="M 427.03 658.97 C 428.94 657.06 429.02 655.86 428.77 633.26 L 428.50 609.56 L 426.00 608.29 C 423.79 607.18 424.50 607.03 432.00 607.03 C 439.50 607.03 440.21 607.18 438.00 608.29 L 435.50 609.56 L 435.23 632.81 C 435.06 647.71 435.34 656.77 436.02 658.03 C 436.98 659.82 436.73 660.01 433.29 660.07 C 431.20 660.12 428.49 660.34 427.26 660.57 L 425.01 660.99 L 427.03 658.97Z"/></g>
</svg>
