<?xml version="1.0" encoding="utf-8"?>
<!DOCTYPE svg PUBLIC "-//W3C//DTD SVG 20010904//EN" "http://www.w3.org/TR/2001/REC-SVG-20010904/DTD/svg10.dtd">
<svg version="1.0" xmlns="http://www.w3.org/2000/svg" width="313pt" height="313pt" viewBox="0 0 313 313" preserveAspectRatio="xMidYMid meet">
<g fill="#050404FF">
<path d="M 46.50 269.32 C 61.35 266.03 70.91 256.56 128.66 187.94 C 130.17 186.14 128.76 182.25 105.06 123.00 C 88.53 81.67 86.39 76.96 81.46 71.22 C 77.08 66.11 73.65 64.17 65.00 61.90 C 58.50 60.20 58.52 60.20 90.50 60.25 C 108.10 60.28 121.60 60.46 120.50 60.66 C 119.40 60.86 113.87 62.03 108.20 63.26 C 100.12 65.02 98.00 65.82 98.37 67.00 C 98.63 67.83 104.54 82.45 111.49 99.50 C 118.45 116.55 127.82 139.83 132.32 151.23 C 136.82 162.63 141.01 171.97 141.63 171.98 C 142.26 171.99 145.34 168.96 148.48 165.25 C 151.63 161.54 156.48 156.10 159.27 153.18 L 164.35 147.85 L 160.22 137.71 C 157.95 132.13 156.20 127.47 156.33 127.33 C 156.46 127.20 158.56 130.47 160.99 134.60 C 163.42 138.72 165.95 142.55 166.62 143.10 C 167.49 143.82 169.44 142.19 173.66 137.20 C 176.87 133.40 185.96 122.99 193.85 114.06 C 223.97 79.99 229.09 71.85 224.50 65.30 C 223.67 64.12 221.54 62.83 219.75 62.42 C 216.51 61.69 216.51 61.69 219.07 60.98 C 221.59 60.28 257.00 59.86 257.00 60.52 C 257.00 60.71 254.63 61.55 251.73 62.39 C 245.97 64.06 239.18 68.20 233.86 73.26 C 227.66 79.16 200.44 109.40 174.70 139.00 L 168.18 146.49 L 170.34 150.07 C 171.53 152.03 174.43 156.76 176.79 160.57 C 179.15 164.38 184.03 172.45 187.63 178.50 C 205.30 208.18 221.10 228.08 233.50 236.29 C 238.11 239.34 247.89 242.91 252.41 243.19 C 254.11 243.30 244.93 243.63 232.00 243.94 C 219.07 244.25 206.70 244.25 204.50 243.95 C 200.52 243.40 200.52 243.40 206.41 242.61 C 215.36 241.41 215.59 241.21 212.17 237.62 C 204.39 229.43 187.50 198.29 170.50 160.80 C 167.23 153.59 165.25 150.33 164.45 150.80 C 163.79 151.18 158.50 157.03 152.70 163.79 L 142.16 176.08 L 147.33 188.72 C 150.17 195.67 152.96 201.50 153.53 201.69 C 154.10 201.87 155.89 199.57 157.51 196.57 C 161.91 188.43 161.70 190.64 157.22 199.65 C 155.07 203.97 151.59 211.69 149.49 216.81 L 145.66 226.13 L 143.48 220.81 C 142.28 217.89 139.09 209.77 136.40 202.77 C 133.70 195.77 131.17 190.03 130.76 190.02 C 129.71 189.99 97.86 227.41 89.62 238.36 C 82.17 248.27 78.03 256.01 78.01 260.08 C 77.99 264.23 82.16 267.25 89.78 268.61 C 95.78 269.68 93.73 269.81 70.50 269.79 C 56.20 269.78 45.40 269.57 46.50 269.32Z"/></g>
<g fill="#3C3B39FF">
<path d="M 213.15 244.51 C 213.83 243.84 265.11 243.77 265.78 244.45 C 266.09 244.75 254.26 245.00 239.50 245.00 C 224.74 245.00 212.88 244.78 213.15 244.51Z"/></g>
<g fill="#9E9E9BFF">
<path d="M 77.30 270.25 C 82.69 270.07 91.24 270.07 96.30 270.26 C 101.36 270.44 96.95 270.58 86.50 270.58 C 76.05 270.58 71.91 270.43 77.30 270.25Z"/></g>
<g fill="#3C3B39FF">
<path d="M 182.47 160.64 C 183.63 156.71 191.47 139.90 191.75 140.74 C 191.91 141.23 189.77 146.32 186.98 152.06 C 184.20 157.80 182.17 161.66 182.47 160.64Z"/></g>
<g fill="#3C3B39FF">
<path d="M 192.00 244.00 C 192.00 242.83 197.59 242.81 204.00 243.95 C 208.04 244.67 207.66 244.76 200.25 244.87 C 195.33 244.95 192.00 244.60 192.00 244.00Z"/></g>
</svg>
